<svg xmlns="http://www.w3.org/2000/svg" width="32" height="32" viewBox="0 0 32 32">
  <rect width="32" height="32" rx="6" fill="#0f172a"/>
  <!-- Simplified book -->
  <g transform="translate(16,18)">
    <path d="M-8,-5 L-1,-4 L-1,6 L-8,5 Z" fill="#818cf8" opacity="0.7"/>
    <path d="M1,-4 L8,-5 L8,5 L1,6 Z" fill="#6366f1"/>
    <line x1="0" y1="-4.5" x2="0" y2="6.5" stroke="#a5b4fc" stroke-width="0.7" opacity="0.5"/>
  </g>
  <!-- Simplified lightbulb -->
  <g transform="translate(16,8)">
    <circle cx="0" cy="0" r="5" fill="#6366f1" opacity="0.15"/>
    <path d="M0,-5 C-3,-5 -5,-3 -5,0 C-5,2 -3.5,3 -2.5,4 L-2.5,5 L2.5,5 L2.5,4 C3.5,3 5,2 5,0 C5,-3 3,-5 0,-5Z" fill="#a5b4fc" opacity="0.9"/>
    <rect x="-2" y="5" width="4" height="1.5" rx="0.5" fill="#6366f1"/>
    <!-- Tiny rays -->
    <line x1="0" y1="-7" x2="0" y2="-8.5" stroke="#a5b4fc" stroke-width="1" stroke-linecap="round" opacity="0.6"/>
    <line x1="-5" y1="-4" x2="-6.5" y2="-5" stroke="#a5b4fc" stroke-width="1" stroke-linecap="round" opacity="0.5"/>
    <line x1="5" y1="-4" x2="6.5" y2="-5" stroke="#a5b4fc" stroke-width="1" stroke-linecap="round" opacity="0.5"/>
  </g>
</svg>
